<svg width="40" height="40" viewBox="0 0 40 40" fill="none" xmlns="http://www.w3.org/2000/svg">
  <g transform="translate(4, 4)">
    <!-- Main shape resembling the uploaded logo -->
    <g transform="rotate(30 16 16)">
      <rect x="14" y="2" width="4" height="12" rx="2" fill="currentColor"/>
      <rect x="14" y="18" width="4" height="12" rx="2" fill="currentColor"/>
      <rect x="2" y="14" width="12" height="4" rx="2" fill="currentColor"/>
      <rect x="18" y="14" width="12" height="4" rx="2" fill="currentColor"/>
    </g>
    <g transform="rotate(-30 16 16)">
      <rect x="14" y="2" width="4" height="12" rx="2" fill="currentColor"/>
      <rect x="14" y="18" width="4" height="12" rx="2" fill="currentColor"/>
      <rect x="2" y="14" width="12" height="4" rx="2" fill="currentColor"/>
      <rect x="18" y="14" width="12" height="4" rx="2" fill="currentColor"/>
    </g>
    <!-- Center circle -->
    <circle cx="16" cy="16" r="3" fill="currentColor"/>
    <!-- Corner dots -->
    <circle cx="6" cy="6" r="2" fill="currentColor"/>
    <circle cx="26" cy="6" r="2" fill="currentColor"/>
    <circle cx="6" cy="26" r="2" fill="currentColor"/>
    <circle cx="26" cy="26" r="2" fill="currentColor"/>
  </g>
</svg>